<svg width="512" height="512" viewBox="0 0 512 512" fill="none" xmlns="http://www.w3.org/2000/svg">
  <defs>
    <linearGradient id="loadrift-gradient" x1="88" y1="72" x2="416" y2="432" gradientUnits="userSpaceOnUse">
      <stop offset="0" stop-color="#B6A4FF" />
      <stop offset="1" stop-color="#74C8FF" />
    </linearGradient>
    <linearGradient id="loadrift-shine" x1="120" y1="64" x2="376" y2="208" gradientUnits="userSpaceOnUse">
      <stop offset="0" stop-color="white" stop-opacity="0.4" />
      <stop offset="1" stop-color="white" stop-opacity="0" />
    </linearGradient>
  </defs>

  <rect x="40" y="40" width="432" height="432" rx="144" fill="#0A101B" />
  <rect x="56" y="56" width="400" height="400" rx="128" fill="url(#loadrift-gradient)" />
  <path d="M88 104C88 86.3269 102.327 72 120 72H360C392.033 72 421.131 90.6611 434.495 119.799L448 149H120C102.327 149 88 134.673 88 117V104Z" fill="url(#loadrift-shine)" />

  <path d="M175 340V172H251C314.423 172 360 209.941 360 268.418C360 327.261 313.249 366 249.827 366H215V340H175ZM215 300H246.96C286.893 300 314 286.3 314 268.418C314 250.902 287.675 238 247.742 238H215V300Z" fill="#081019" />
  <rect x="324" y="172" width="34" height="194" rx="17" fill="#081019" opacity="0.88" />
</svg>
