<svg width="512" height="512" viewBox="0 0 512 512" fill="none" xmlns="http://www.w3.org/2000/svg">
  <defs>
    <linearGradient id="loadrift-lr-gradient" x1="92" y1="80" x2="420" y2="432" gradientUnits="userSpaceOnUse">
      <stop offset="0" stop-color="#E5BA73" />
      <stop offset="1" stop-color="#84C5D7" />
    </linearGradient>
    <linearGradient id="loadrift-lr-sheen" x1="132" y1="88" x2="388" y2="224" gradientUnits="userSpaceOnUse">
      <stop offset="0" stop-color="white" stop-opacity="0.34" />
      <stop offset="1" stop-color="white" stop-opacity="0" />
    </linearGradient>
  </defs>

  <rect x="24" y="24" width="464" height="464" rx="152" fill="#091017" />
  <rect x="40" y="40" width="432" height="432" rx="140" fill="url(#loadrift-lr-gradient)" />
  <rect x="40.5" y="40.5" width="431" height="431" rx="139.5" stroke="rgba(255,255,255,0.08)" />
  <path
    d="M96 118C96 96.9086 113.091 79.8173 134.183 79.8173H351.873C387.91 79.8173 420.412 101.067 434.785 134.112L443.217 153.5H134.183C113.091 153.5 96 136.409 96 115.317V118Z"
    fill="url(#loadrift-lr-sheen)"
  />

  <path
    d="M132 150H184V312H270V362H132V150Z"
    fill="#081019"
  />
  <path
    d="M260 150H332C387.11 150 418 179.823 418 225.484C418 257.393 402.258 280.466 372.727 292.396L418 362H359.478L321.232 302.915H312V362H260V150ZM312 194V261H328.255C359.661 261 373.127 248.946 373.127 227.152C373.127 205.358 359.661 194 328.255 194H312Z"
    fill="#081019"
  />
</svg>
